<?xml version="1.0" encoding="utf-8"?>
<!-- Generator: Adobe Illustrator 21.1.0, SVG Export Plug-In . SVG Version: 6.00 Build 0)  -->
<svg version="1.1" id="Livello_1" xmlns="http://www.w3.org/2000/svg" xmlns:xlink="http://www.w3.org/1999/xlink" x="0px" y="0px"
	 viewBox="0 0 833 400" style="enable-background:new 0 0 833 400;" xml:space="preserve">
<style type="text/css">
	.st0{fill:#E9BB7C;}
	.st1{fill:none;stroke:#000000;stroke-miterlimit:10;}
</style>
<rect class="st0" width="833" height="400"/>
<line class="st1" x1="0" y1="364.5" x2="35.5" y2="400"/>
<polyline class="st1" points="0,293.4 106.6,400 35.5,400 106.6,400 "/>
<line class="st1" x1="177.6" y1="400" x2="248.7" y2="400"/>
<polygon points="177.6,400 0,222.4 0,151.3 248.7,400 "/>
<line class="st1" x1="319.7" y1="400" x2="390.8" y2="400"/>
<line class="st1" x1="461.8" y1="400" x2="532.9" y2="400"/>
<line class="st1" x1="604.9" y1="400" x2="676" y2="400"/>
<line class="st1" x1="747" y1="400" x2="818.1" y2="400"/>
<polygon points="319.7,400 0,80.3 0,10.2 389.8,400 "/>
<polygon points="462.8,400 62.8,0 132.9,0 532.9,400 "/>
<polygon points="604.9,400 204.9,0 276,0 676,400 "/>
<polygon points="747,400 347,0 418.1,0 818.1,400 "/>
<polyline class="st1" points="833,344.2 489.1,0 560,0.1 833,273.1 "/>
<line class="st1" x1="833" y1="202.1" x2="833" y2="131"/>
<polygon points="833,202.1 630.9,0 702,0 833,131 "/>
<polygon points="833,60 773,0 832.7,0 "/>
<path class="st1" d="M0,293.4v71.1V293.4z"/>
<path class="st1" d="M0,364.5"/>
<polygon points="0,293.4 106.6,400 35.5,400 0,364.5 "/>
<polygon points="489.1,0 560,0.1 833,273.1 833,344.2 "/>
</svg>
